PathFileType	4	(X/Y/Z)	/Users/itak/Documents/Research/Walk-IL/dataset/trc/00277_00010.trc
DataRate	CameraRate	NumFrames	NumMarkers	Units	OrigDataRate	OrigDataStartFrame	OrigNumFrames
100.000000	100.000000	4	53	mm	100.000000	84	672
Frame#	Time	RPSI			LPSI			L3			STRN			T10			C7			CLAV			RBAK			LBAK			LSHO			LUPA			LAEL			LAOL			LWTS			LWPS			LFRA			LIFD			LHPS			LHTS			RSHO			RUPA			RAEL			RAOL			RWTS			RWPS			RFRA			RIFD			RHTS			RHPS			RBHD			LFHD			RFHD			LBHD			LHIP			RHIP			RASI			LASI			LKNE			LTHI			LANK			LTIP			LTOE			LMT1			LMT5			LHEE			RKNE			RTHI			RANK			RTIP			RTOE			RMT1			RMT5			RHEE			
		X1	Y1	Z1	X2	Y2	Z2	X3	Y3	Z3	X4	Y4	Z4	X5	Y5	Z5	X6	Y6	Z6	X7	Y7	Z7	X8	Y8	Z8	X9	Y9	Z9	X10	Y10	Z10	X11	Y11	Z11	X12	Y12	Z12	X13	Y13	Z13	X14	Y14	Z14	X15	Y15	Z15	X16	Y16	Z16	X17	Y17	Z17	X18	Y18	Z18	X19	Y19	Z19	X20	Y20	Z20	X21	Y21	Z21	X22	Y22	Z22	X23	Y23	Z23	X24	Y24	Z24	X25	Y25	Z25	X26	Y26	Z26	X27	Y27	Z27	X28	Y28	Z28	X29	Y29	Z29	X30	Y30	Z30	X31	Y31	Z31	X32	Y32	Z32	X33	Y33	Z33	X34	Y34	Z34	X35	Y35	Z35	X36	Y36	Z36	X37	Y37	Z37	X38	Y38	Z38	X39	Y39	Z39	X40	Y40	Z40	X41	Y41	Z41	X42	Y42	Z42	X43	Y43	Z43	X44	Y44	Z44	X45	Y45	Z45	X46	Y46	Z46	X47	Y47	Z47	X48	Y48	Z48	X49	Y49	Z49	X50	Y50	Z50	X51	Y51	Z51	X52	Y52	Z52	X53	Y53	Z53	

85	0.84	68.16111755371094	987.9732666015625	1324.768676757812	44.30220031738281	967.9261474609375	1153.097412109375	80.11900329589844	1054.546875	1240.27490234375	340.7040100097656	1201.718505859375	1176.942626953125	80.15706634521484	1175.096069335938	1246.69287109375	151.7729034423828	1411.426879882812	1211.819702148438	290.9156799316406	1308.37646484375	1184.016235351562	102.6931991577148	1284.745239257812	1305.830688476562	103.2037048339844	1378.256713867188	1117.645263671875	177.2717437744141	1373.042724609375	1044.377197265625	105.9333114624023	1267.288940429688	985.8069458007812	59.94643402099609	1069.8271484375	981.3143920898438	20.23856544494629	1067.529418945312	1058.65673828125	103.3453826904297	834.0309448242188	1012.839233398438	50.53777313232422	830.5547485351562	963.729248046875	48.48617553710938	964.6602783203125	972.9412231445312	64.71190643310547	651.0513305664062	1024.057250976562	35.85649108886719	742.9122924804688	970.502197265625	97.674072265625	732.6831665039062	992.7142333984375	256.3774719238281	1379.189208984375	1348.960693359375	262.64990234375	1322.2314453125	1417.129760742188	250.0322418212891	1056.056030273438	1478.351440429688	182.1786956787109	1053.152099609375	1411.6083984375	290.6160888671875	821.4854125976562	1399.893188476562	282.3948059082031	821.0269165039062	1483.933959960938	268.9075317382812	985.7943115234375	1481.660888671875	265.4700927734375	635.986083984375	1405.21728515625	307.155517578125	701.0267944335938	1408.340209960938	285.3478393554688	706.729736328125	1475.332275390625	243.0069580078125	1567.885498046875	1257.3505859375	323.6407470703125	1568.08447265625	1062.296142578125	373.7001953125	1573.30126953125	1139.667602539062	163.4293060302734	1549.453857421875	1136.112670898438	100.4292678833008	918.4004516601562	1051.283203125	205.5215606689453	916.4982299804688	1402.01904296875	290.0743408203125	926.0892944335938	1332.253051757812	243.4529418945312	925.06640625	1084.51708984375	319.393798828125	495.0285949707031	1036.8916015625	249.1355438232422	620.6937255859375	1028.34375	433.2432250976562	54.90590286254883	1018.793212890625	366.9040832519531	271.0850524902344	1018.023559570312	630.219970703125	128.4331207275391	1042.315185546875	579.7376708984375	90.83803558349609	1091.41796875	545.0013427734375	94.89394378662109	986.1090087890625	403.2158203125	33.35065841674805	1083.648315429688	123.0692749023438	461.0316772460938	1379.903198242188	204.3926696777344	714.7796020507812	1404.098266601562	-55.94283294677734	46.94295883178711	1371.437866210938	97.03080749511719	338.2856750488281	1365.922973632812	129.4217987060547	44.67165756225586	1289.896118164062	66.98320007324219	41.9117317199707	1258.284790039062	49.54136276245117	36.25722122192383	1375.34765625	-117.0388793945312	45.97380447387695	1328.906372070312	
86	0.85	74.73374938964844	986.2626342773438	1322.1455078125	51.04071426391602	966.0192260742188	1150.48486328125	86.49254608154297	1052.59765625	1237.749267578125	346.519287109375	1200.097534179688	1174.097900390625	86.28855133056641	1172.926025390625	1244.140258789062	157.2604522705078	1409.39453125	1209.022827148438	296.5913696289062	1306.709350585938	1181.065307617188	108.5341415405273	1282.67431640625	1303.173217773438	108.5473327636719	1376.110473632812	1114.97607421875	182.4477081298828	1371.012939453125	1041.51171875	110.7392272949219	1265.282958984375	983.33984375	64.24470520019531	1067.995361328125	979.3983764648438	25.22240447998047	1065.793334960938	1057.066040039062	106.624397277832	831.8987426757812	1011.124816894531	53.49760437011719	828.6201171875	962.3043823242188	52.25969696044922	962.785400390625	971.2513427734375	66.91185760498047	649.2025146484375	1022.931030273438	38.36899566650391	741.1123046875	969.3018188476562	100.2202224731445	730.5457153320312	991.2350463867188	262.1290893554688	1377.498413085938	1346.066772460938	268.5794372558594	1320.657104492188	1414.32275390625	256.8489685058594	1054.432006835938	1475.782470703125	188.7981719970703	1051.285034179688	1409.164428710938	297.8275756835938	819.8706665039062	1397.40625	289.711181640625	819.4115600585938	1481.471435546875	275.9093627929688	984.2379760742188	1479.110473632812	273.0358581542969	634.2698364257812	1403.0048828125	314.5643005371094	699.494140625	1405.945434570312	292.8617858886719	705.2200927734375	1473.010498046875	248.4057922363281	1566.153442382812	1254.309204101562	328.4399108886719	1566.32958984375	1059.05322265625	378.7320251464844	1571.643188476562	1136.28857421875	168.4677124023438	1547.550903320312	1133.228759765625	107.2204208374023	916.3727416992188	1048.682495117188	212.5791778564453	914.611328125	1399.191650390625	296.7015991210938	924.130859375	1329.906494140625	250.1565856933594	923.037841796875	1082.0615234375	325.7273864746094	493.2056274414062	1034.431030273438	255.1739196777344	618.5333251953125	1025.821533203125	446.1137084960938	54.93539047241211	1015.595031738281	375.8700561523438	270.1736755371094	1015.424194335938	642.1512451171875	131.8225402832031	1035.509887695312	593.1106567382812	93.54879760742188	1085.459228515625	556.5914306640625	96.64610290527344	980.782470703125	417.7139892578125	33.14799499511719	1081.067993164062	127.2208633422852	459.7777099609375	1378.553466796875	209.9818878173828	713.079833984375	1402.09814453125	-55.74689102172852	47.05558013916016	1371.47021484375	100.0783386230469	337.1242065429688	1364.873901367188	129.4164123535156	44.56511306762695	1289.931518554688	67.02560424804688	41.94207763671875	1258.338989257812	49.63434982299805	36.12799072265625	1375.440795898438	-116.9450836181641	46.41198348999023	1329.177490234375	
87	0.86	81.47388458251953	984.514404296875	1319.4892578125	57.86698913574219	964.0584106445312	1147.820434570312	93.07261657714844	1050.5517578125	1235.17236328125	352.5154724121094	1198.46484375	1171.147827148438	92.58869934082031	1170.689453125	1241.490966796875	162.8696899414062	1407.315551757812	1206.10009765625	302.4188537597656	1305.026000976562	1177.998291015625	114.509391784668	1280.543579101562	1300.432495117188	114.0339584350586	1373.894409179688	1112.18017578125	187.7591094970703	1368.932373046875	1038.531127929688	115.7266387939453	1263.20703125	980.750244140625	68.777099609375	1066.088500976562	977.35546875	30.39598846435547	1063.987670898438	1055.305541992188	110.1905212402344	829.715087890625	1009.30810546875	56.77291488647461	826.614501953125	960.75830078125	56.29745864868164	960.8363647460938	969.4298095703125	69.41006469726562	647.2888793945312	1021.747619628906	41.20320892333984	739.2374267578125	967.9888916015625	103.0738983154297	728.3505249023438	989.687744140625	268.0111999511719	1375.784423828125	1343.044555664062	274.6517944335938	1319.078125	1411.413208007812	263.8279418945312	1052.801513671875	1473.091552734375	195.6086730957031	1049.378540039062	1406.566772460938	305.3113403320312	818.2555541992188	1394.843505859375	297.2426147460938	817.7916259765625	1478.890625	283.0733642578125	982.6847534179688	1476.451538085938	280.9163513183594	632.5867309570312	1400.694702148438	322.2802124023438	697.9652709960938	1403.473999023438	300.6074829101562	703.6917724609375	1470.582275390625	253.8376770019531	1564.370971679688	1251.16015625	333.3104553222656	1564.5849609375	1055.71923828125	383.8349304199219	1569.99267578125	1132.822875976562	173.5868682861328	1545.616088867188	1130.218872070312	114.1486663818359	914.346923828125	1046.008178710938	219.8092651367188	912.6908569335938	1396.259521484375	303.4977111816406	922.1211547851562	1327.42333984375	256.962158203125	921.0541381835938	1079.488891601562	332.5393371582031	491.5124206542969	1031.763549804688	261.6511840820312	616.50830078125	1023.118835449219	457.5200805664062	54.49179840087891	1013.019165039062	384.4457397460938	269.0030822753906	1012.974731445312	652.8653564453125	134.0236206054688	1028.720336914062	605.25830078125	95.35128021240234	1079.684814453125	566.7086181640625	97.46682739257812	975.7673950195312	430.9066467285156	32.703369140625	1079.234130859375	131.2811889648438	458.5336303710938	1377.17138671875	215.7397155761719	711.3255615234375	1399.971923828125	-55.54183197021484	47.19675064086914	1371.554565429688	103.0894317626953	336.0299987792969	1363.878051757812	129.3746337890625	44.46298217773438	1289.975708007812	67.04994964599609	41.98580551147461	1258.431274414062	49.73891830444336	35.97006225585938	1375.563354492188	-116.8598022460938	46.96797943115234	1329.545776367188	
88	0.87	88.37995910644531	982.7424926757812	1316.778930664062	64.77521514892578	962.0497436523438	1145.099731445312	99.86717224121094	1048.418090820312	1232.533813476562	358.7019348144531	1196.828857421875	1168.082153320312	99.05313873291016	1168.3984375	1238.752197265625	168.6061859130859	1405.19970703125	1203.049926757812	308.4024658203125	1303.333374023438	1174.806884765625	120.6398544311523	1278.36865234375	1297.614501953125	119.6608200073242	1371.608520507812	1109.265625	193.2063446044922	1366.80517578125	1035.43408203125	120.9064178466797	1261.061279296875	978.0360107421875	73.55450439453125	1064.109619140625	975.182861328125	35.75841522216797	1062.11181640625	1053.3740234375	114.0438232421875	827.4801635742188	1007.380981445312	60.36634063720703	824.5428466796875	959.0835571289062	60.60287094116211	958.8152465820312	967.4763793945312	72.21552276611328	645.3048706054688	1020.494384765625	44.36196899414062	737.2899169921875	966.5558471679688	106.2389068603516	726.09912109375	988.0589599609375	274.0359802246094	1374.059204101562	1339.88330078125	280.8877868652344	1317.508544921875	1408.390991210938	270.970703125	1051.186157226562	1470.2734375	202.6116333007812	1047.45556640625	1403.806274414062	313.0588073730469	816.6569213867188	1392.19384765625	304.9874267578125	816.1921997070312	1476.189819335938	290.3982238769531	981.1482543945312	1473.678466796875	289.0872802734375	630.9439086914062	1398.264526367188	330.2990417480469	696.4529418945312	1400.907348632812	308.5843505859375	702.1575317382812	1468.035522460938	259.3095703125	1562.538818359375	1247.912963867188	338.2475891113281	1562.863037109375	1052.286743164062	389.0058288574219	1568.361083984375	1129.262451171875	178.7864379882812	1543.646362304688	1127.091674804688	121.1994705200195	912.3193969726562	1043.2587890625	227.2110443115234	910.7421875	1393.202880859375	310.4501953125	920.0743408203125	1324.809204101562	263.8711547851562	919.11376953125	1076.79541015625	339.8403015136719	489.9571838378906	1028.876342773438	268.5896301269531	614.6360473632812	1020.222961425781	467.462646484375	53.53893280029297	1011.044189453125	392.6810607910156	267.5650634765625	1010.647033691406	662.3871459960938	134.8969116210938	1022.124572753906	616.1559448242188	96.11360931396484	1074.23095703125	575.4046630859375	97.27266693115234	971.1657104492188	442.707275390625	31.97049903869629	1078.0986328125	135.2578887939453	457.3103332519531	1375.7509765625	221.6154479980469	709.5447387695312	1397.733032226562	-55.3200798034668	47.39009475708008	1371.698486328125	106.0675964355469	335.0143432617188	1362.92529296875	129.2991638183594	44.36334228515625	1290.025024414062	67.05518341064453	42.04081344604492	1258.555786132812	49.8514518737793	35.79459762573242	1375.709106445312	-116.784309387207	47.67390823364258	1330.014526367188	
